<svg xmlns="http://www.w3.org/2000/svg" fill="white" xml:space="preserve" viewBox="0 0 100 17.933"><path d="M97.534 6.974h-4.508v3.363h4.508V6.974zM100 .249h-6.974v3.363H100V.249zm-7.472 0h-3.612v17.435h3.612V.249zm-12.827 0h-3.612v7.846l1.245 3.263c.623 1.644 1.295 2.341 2.366 2.341V.249zm-7.597 17.435V9.838l-1.245-3.313c-.623-1.644-1.295-2.291-2.366-2.291v13.45h3.611zm7.597 0v-3.487c-.872 0-1.968-.324-2.74-2.366L72.602.249h-4.11v3.487c.872 0 1.968.299 2.74 2.366l4.359 11.582h4.11zm-19.712-3.113c-1.021 0-1.744-.847-1.744-1.868V5.231c0-1.021.722-1.868 1.744-1.868V0c-2.939 0-5.355 2.291-5.355 5.231v7.472c0 2.939 2.416 5.231 5.355 5.231v-3.363zm5.853-9.34c0-2.94-2.416-5.231-5.355-5.231v3.363c1.021 0 1.744.847 1.744 1.868v7.472c0 1.021-.722 1.868-1.744 1.868v3.363c2.939 0 5.355-2.291 5.355-5.231V5.231zM51.982.249H48.37v17.435h3.612V.249zm-5.839 0H35.159v3.363h10.984V.249zM42.457 4.11h-3.612v13.575h3.612V4.11zM30.669 15.542l-.648-2.914h-2.192l1.121-4.832c-.498-2.042-1.245-3.587-2.765-3.587l-3.138 13.475h3.636l.498-2.142h3.488zm4.632 2.142L31.241.249h-4.135l-.796 3.487c1.046 0 2.341.623 3.039 3.711l2.316 10.237h3.636zM23.244.249H12.26v3.363h10.984V.249zM19.558 4.11h-3.612v13.575h3.612V4.11zm-8.599.872C10.835 1.993 8.643 0 5.853 0v3.363c.847.024 1.495.772 1.495 1.868l3.611-.249zm-5.604 9.589c-.996-.025-1.744-.922-1.744-1.868L0 12.877c.1 2.964 2.391 5.056 5.355 5.056v-3.362zm.498 3.362c2.964 0 5.48-2.316 5.48-5.305 0-2.441-1.171-4.135-3.437-4.882a91.99 91.99 0 0 1-2.491-.896c-.797-.299-1.569-.773-1.569-1.819 0-1.146.822-1.644 1.519-1.669V0C2.615 0 .199 2.042.199 5.081c0 2.018 1.021 4.085 3.612 4.982.623.224 1.295.473 2.067.772 1.046.399 1.719.996 1.719 1.918 0 1.146-.722 1.793-1.744 1.818v3.362z"/><script/></svg>
