<svg xmlns="http://www.w3.org/2000/svg" xml:space="preserve" fill="white" style="enable-background:new 0 0 785.9 560.2" viewBox="0 0 785.9 560.2"><path d="M184.2 233.3V66h23.7v147.3H273v20z"/><path d="M233.4 191.9V24.7h89.8l-7.7 20.1h-58.4v51.7h57.8v19.8h-57.8v55.5h66.7v20.1zM108.4 424.1h-15L23.6 256H49l42.9 105.9c3.4 9 6.9 18.2 10.2 27.2h.4c3.2-8.8 6.5-17.3 10.7-27L159.5 256H184l-75.6 168.1zM199.1 256h23.8v167.2h-23.8zM566.7 425.7c-52.7 0-87.5-35.1-87.5-83.6 0-51.7 37.5-87.4 93.4-87.4 21.8 0 39.6 5.3 49.8 9.7l-.4 22.8c-11.7-5.8-28.9-12.6-48.8-12.6-45 0-68.5 27.4-68.5 65 0 40.3 25.8 66.1 68 66.1 14.5 0 25.1-2.4 31.4-6v-58.4h23.7v70.6c-11.7 6-34.5 13.8-61.1 13.8zM653.4 423.2V256h89.7l-7.7 20h-58.2v51.9h57.6v19.7h-57.6v55.7h66.4v19.9zM417.4 255.4h-15.1l-41 100.4h21.8l19.3-46.5c3.2-8 5.4-14.4 6.9-20.5h.2c1.4 5.5 3.6 12.4 6.7 20.8l19.5 50.7h-112V213.1H300v167.2h52.1l-9.2 23H273V256h-23.8v167.2h109l16.3-42.9h68.3l17.6 42.9h25.3l-68.3-167.8zM610.4 458.2c-1.3 0-2.1.2-2.9.5v10.2c.8.2 1.5.4 2.5.4 3.1 0 5.4-2.6 5.4-6-.1-2.9-2-5.1-5-5.1zm-1.2 14.2c-2.5 0-4.4-.6-5.5-1.3V447h3.8v8.4c1.1-.2 2.3-.5 3.6-.5 4.2 0 8 2.7 8 8.2.1 5.8-4.5 9.3-9.9 9.3zM633 473c-2.5 6.4-5.4 7.3-8.2 7.3-1.7 0-2.9-.2-3.8-.7l.9-2.7c.8.4 1.6.5 2.7.5 1.9 0 3.6-1.3 5-5.3l-8.1-16.8h4.2l5.7 12.6 4.4-12.6h3.8L633 473zM625.2 534h1.9v9h-1.9v-9zM629.8 534h1.9v7.6h5.7v1.4h-7.7v-9zM639.6 534h1.9v7.6h5.7v1.4h-7.7v-9zM648.8 540.4V534h8.2v1.4h-6.2v2.2h5.7v1.4h-5.7v1.4c0 .8.4 1.2 1.1 1.2h5.3v1.4h-5.7c-1.7 0-2.7-.9-2.7-2.6zM664.7 537.7v1.6h-5.6v-1.6h5.6zM666.7 540.4V534h8.2v1.4h-6.2v2.2h5.7v1.4h-5.7v1.4c0 .8.4 1.2 1.1 1.2h5.3v1.4h-5.7c-1.7 0-2.7-.9-2.7-2.6zM676.8 535.5V534h8.9v1.4h-3.5v7.6h-1.9v-7.6h-3.5zM691.9 537.7v1.6h-5.6v-1.6h5.6zM703.3 534l-4.5 9h-2l-4.5-9h2.2l3.4 7.1 3.4-7.1h2zM705.2 534h1.9v9h-1.9v-9zM709.8 534h1.9v7.6h5.7v1.4h-7.7v-9zM726.8 540.9h-5l-1.1 2.2h-2l4.7-9h2l4.7 9h-2.2l-1.1-2.2zm-.7-1.4-1.8-3.6-1.8 3.6h3.6zM732 534h1.9v9H732v-9zM738.5 536.6v6.4h-1.9v-9h1.9l5.5 6.4V534h1.9v9H744l-5.5-6.4zM748.5 540.4V534h8.2v1.4h-6.2v2.2h5.7v1.4h-5.7v1.4c0 .8.4 1.2 1.1 1.2h5.3v1.4h-5.7c-1.7 0-2.7-.9-2.7-2.6zM638.6 515h104.8v9H638.6zM718.3 495.9l2.2 5.4 2 4.7c1 2.4 3.2 2.6 5.5 2.6h12.6l-9.1-19.6-13.2 6.9zM726.3 465.7c.3.4.6.8 1 1 .5.3 1.2.5 1.9.6.7 0 1.3-.1 1.9-.4l20-10.8v-10l-4.2 2.2-14.9 7.8s-5.1 2.8-8.4 3.5v.1c.9 2.8 1.8 4.6 2.7 6z"/><path d="M725.4 475.5 714 452.1h-15.9l-20.3 38.4-1.3 2.6c7-1 17.1-2.8 20.2-8.9l9.1-19.5 7 17.7v.1c-15.8 8.6-36.4 17-54.2 15.5-7.5-.6-12.1-3.5-11.6-8.3.5-5.5 5.2-11.2 13.6-17 6.4-4.4 11.9-6.8 14.9-7.8 3.8-1.4 7.1-2 10.6-2.1.9 0 1.6.1 2.2.3 0-.1 0-.2-.1-.3-1.6-10.2-4.3-11.6-8.5-11.5-11.8.4-26.6 8.5-34.5 18-4.2 5.1-6.4 11.1-6.5 15.5-.2 6.6 2.5 15.7 10.6 20.3 9 5.1 21.9 4.8 33.6 2.1 12.6-2.8 23.5-8.3 34.3-13.7l13.2-6.8 20.8-11.9.1-12.9-25.9 13.6z"/></svg>
