<svg data-name="Calque 1" xmlns="http://www.w3.org/2000/svg" viewBox="0 0 141.73 141.73"><path d="M84.71 50.28a7.09 7.09 0 10-7.09-7.09 7.09 7.09 0 007.09 7.09zm0-12.2a5.12 5.12 0 11-5.12 5.12 5.12 5.12 0 015.12-5.12zm14.21 25.07a14.2 14.2 0 00-14.2-11.68 14.63 14.63 0 00-10 3.94 14.63 14.63 0 00-10-3.94 14.2 14.2 0 00-14.29 11.71 1.89 1.89 0 00-.16.88v14.57A4.33 4.33 0 0057 82.25v26.69a4.33 4.33 0 007.68 2.75 4.33 4.33 0 007.68-2.75V82.25a4.33 4.33 0 00.6.32l.23.09a4.45 4.45 0 00.52.16l.24.05a3.88 3.88 0 001.56 0l.23-.05a4.21 4.21 0 00.53-.16l.22-.08a4.25 4.25 0 00.61-.33v26.69a4.33 4.33 0 007.68 2.75 4.33 4.33 0 007.68-2.75V82.25a4.33 4.33 0 006.69-3.63V64a1.84 1.84 0 00-.23-.85zm-28.41 0a1.89 1.89 0 00-.16.88v44.88a2.36 2.36 0 01-4.72 0V80.79a1 1 0 00-2 0v28.15a2.36 2.36 0 01-4.72 0V65a1 1 0 10-2 0v13.63a2.36 2.36 0 01-4.72 0V65.24c0-6.52 5.6-11.81 12.4-11.81a12.69 12.69 0 018.7 3.41 13.43 13.43 0 00-2.79 6.34zM77 78.62a2.36 2.36 0 11-4.72 0V65.24a11.35 11.35 0 012.36-6.9 11.34 11.34 0 012.36 6.9zm20.08 0a2.36 2.36 0 11-4.72 0V68.19a1 1 0 10-2 0v40.75a2.36 2.36 0 01-4.72 0V80.79a1 1 0 00-2 0v28.15a2.36 2.36 0 01-4.72 0V64a1.87 1.87 0 00-.16-.89A13.42 13.42 0 0076 56.84a12.69 12.69 0 018.7-3.41c6.8 0 12.4 5.29 12.4 11.81zM64.64 50.28a7.09 7.09 0 10-7.09-7.09 7.09 7.09 0 007.09 7.09zm0-12.2a5.12 5.12 0 11-5.12 5.12 5.12 5.12 0 015.12-5.12z" fill="#22204d"/></svg>