<svg id="Calque_1" data-name="Calque 1" xmlns="http://www.w3.org/2000/svg" viewBox="0 0 141.73 141.73"><defs><style>.cls-1{fill:#22204d}</style></defs><path id="_Tracé_transparent_" data-name="&lt;Tracé transparent&gt;" class="cls-1" d="M107.12 73.24h-4.35V66a1.45 1.45 0 00-2.25-1.21l-13.05 8.7a1.45 1.45 0 000 2.41l13.05 8.7a1.45 1.45 0 002.26-1.21v-7.25h4.35a1.45 1.45 0 100-2.9zm-7.25 7.44l-9-6 9-6z"/><path id="_Tracé_" data-name="&lt;Tracé&gt;" class="cls-1" d="M70.86 38.43a1.45 1.45 0 00-1.45 1.45v69.62a1.45 1.45 0 102.9 0V39.88a1.45 1.45 0 00-1.45-1.45z"/><path id="_Tracé_transparent_2" data-name="&lt;Tracé transparent&gt;" class="cls-1" d="M54.91 74.69a1.45 1.45 0 00-.65-1.21l-13.05-8.7A1.45 1.45 0 0039 66v7.25h-4.39a1.45 1.45 0 100 2.9H39v7.25a1.45 1.45 0 002.25 1.21l13.05-8.7a1.45 1.45 0 00.61-1.22zm-13.05 6v-12l9 6z"/><path id="_Tracé_2" data-name="&lt;Tracé&gt;" class="cls-1" d="M81 74.69c0-14 8.5-34 8.59-34.24a1.45 1.45 0 10-2.66-1.14c-.36.84-8.82 20.75-8.82 35.38s8.46 34.54 8.82 35.38a1.45 1.45 0 001.33.88 1.42 1.42 0 00.57-.12 1.45 1.45 0 00.76-1.9c-.07-.2-8.59-20.21-8.59-34.24z"/><path id="_Tracé_3" data-name="&lt;Tracé&gt;" class="cls-1" d="M52.89 38.55a1.45 1.45 0 00-.76 1.9c.09.2 8.59 20.2 8.59 34.24s-8.5 34-8.59 34.24a1.45 1.45 0 00.76 1.9 1.4 1.4 0 00.57.12 1.45 1.45 0 001.33-.88c.36-.84 8.82-20.75 8.82-35.38s-8.46-34.54-8.82-35.38a1.45 1.45 0 00-1.9-.76z"/></svg>