<svg id="Calque_1" data-name="Calque 1" xmlns="http://www.w3.org/2000/svg" viewBox="0 0 141.73 141.73"><defs><style>.cls-1{fill:#22204d}</style></defs><path id="_Tracé_" data-name="&lt;Tracé&gt;" class="cls-1" d="M54 109.69a1.22 1.22 0 01-1.1-.71l-3.69-8-9.21 2.1a1.21 1.21 0 01-1.38-1.69L50.77 75A1.22 1.22 0 1153 76l-11.13 24.16 7.77-1.78A1.21 1.21 0 0151 99l3 6.5L63.79 84A1.21 1.21 0 1166 85l-10.88 24a1.22 1.22 0 01-1.1.71z"/><path id="_Tracé_2" data-name="&lt;Tracé&gt;" class="cls-1" d="M89.8 109.69a1.21 1.21 0 01-1.1-.71l-11-23.89a1.22 1.22 0 112.21-1l9.9 21.49 3-6.52a1.21 1.21 0 011.38-.68l7.77 1.78L90.82 76A1.22 1.22 0 1193 75l12.16 26.39a1.21 1.21 0 01-1.38 1.69L94.59 101l-3.69 8a1.22 1.22 0 01-1.1.69z"/><path id="_Tracé_transparent_" data-name="&lt;Tracé transparent&gt;" class="cls-1" d="M71.91 81.22a20.77 20.77 0 1120.76-20.76 20.79 20.79 0 01-20.76 20.76zm0-39.1a18.34 18.34 0 1018.33 18.34 18.36 18.36 0 00-18.33-18.34z"/><path id="_Tracé_transparent_2" data-name="&lt;Tracé transparent&gt;" class="cls-1" d="M65.31 71.17a1.21 1.21 0 01-1.16-1.59l2.25-6.91-5.88-4.27a1.21 1.21 0 01.71-2.2h7.27l2.25-6.91a1.21 1.21 0 012.31 0l2.25 6.91h7.27a1.21 1.21 0 01.71 2.2l-5.88 4.27 2.25 6.91a1.21 1.21 0 01-1.87 1.36l-5.88-4.27L66 70.94a1.22 1.22 0 01-.69.23zm6.6-7.17a1.21 1.21 0 01.71.23l3.57 2.59-1.36-4.2a1.22 1.22 0 01.44-1.36l3.57-2.59h-4.42a1.22 1.22 0 01-1.16-.84l-1.36-4.2-1.36 4.2a1.22 1.22 0 01-1.16.84H65l3.57 2.59a1.21 1.21 0 01.43 1.32l-1.36 4.2 3.57-2.59a1.22 1.22 0 01.7-.19z"/></svg>