<svg id="Calque_1" data-name="Calque 1" xmlns="http://www.w3.org/2000/svg" viewBox="0 0 141.73 141.73"><defs><style>.cls-1{fill:#22204d}</style></defs><path class="cls-1" d="M74.09 38.21a25.7 25.7 0 00-23.24 14.52 1.27 1.27 0 002.28 1.11 23.32 23.32 0 0144.28 10.23 23.41 23.41 0 01-5.67 15.23c-.45.59-1 1.24-1.55 1.95-3.11 3.84-7.81 9.64-10.14 18.12-.1.37-.22.72-.39 1.15a10.88 10.88 0 01-21.16-3.58 1.27 1.27 0 10-2.53 0 13.41 13.41 0 0026.07 4.45c.18-.46.32-.89.45-1.35 2.19-8 6.69-13.52 9.67-17.2a97.6 97.6 0 001.55-1.95 25.84 25.84 0 00-19.62-42.68z"/><path class="cls-1" d="M69.69 56.68a10.45 10.45 0 018.37-.27 11.22 11.22 0 017.09 9.9 1.26 1.26 0 00.44.88 1.23 1.23 0 00.91.3 1.27 1.27 0 001.18-1.35A13.73 13.73 0 0079 54a13 13 0 00-10.38.35 14.48 14.48 0 00-7.1 8c-1 2.57-.42 6.54 1.73 12.14 1.33 3.46.17 7.07-.68 9.71a13.4 13.4 0 00-.75 2.8 7.45 7.45 0 004.72 7.49 7.21 7.21 0 002.6.48 7.44 7.44 0 003.2-.73 7.94 7.94 0 004-4.36A1.27 1.27 0 0074 89a5.41 5.41 0 01-2.72 3 4.77 4.77 0 01-3.8.17 4.9 4.9 0 01-3.1-4.93A12.8 12.8 0 0165 85c.91-2.83 2.28-7.1.63-11.39-1.89-4.92-2.47-8.39-1.73-10.32a12 12 0 015.79-6.61z"/></svg>