<svg id="Calque_1" data-name="Calque 1" xmlns="http://www.w3.org/2000/svg" viewBox="0 0 141.73 141.73"><defs><style>.cls-1{fill:#22204d}</style></defs><path class="cls-1" d="M63.34 68.42a1 1 0 00-.53-.58 1 1 0 00-.76-.08 1.1 1.1 0 00-.7.49 1.05 1.05 0 00-.09.82A23.6 23.6 0 0159 88a1.07 1.07 0 00.11 1.58.94.94 0 00.68.21 1 1 0 00.86-.52 25 25 0 002.69-20.85z"/><path class="cls-1" d="M101.67 69.87a7.14 7.14 0 003.2-6 7.28 7.28 0 00-7.19-7.19H70.09l-.89-18.26c-.47-6.6-3.22-11.91-7.38-14.22a5.7 5.7 0 00-5.37 0c-1.25.75-2.75 2.44-2.75 6.24 0 20.12-5.58 25.32-6.7 26.15a1.08 1.08 0 00-.56.66 1.21 1.21 0 00.11.88 1.32 1.32 0 00.71.64 1.22 1.22 0 001-.07c1.32-.85 7.89-6.21 7.89-28.27 0-2.16.54-3.61 1.53-4.11a3.33 3.33 0 012.94 0c3.46 1.9 5.81 6.58 6.13 12.22L67.66 58a1.19 1.19 0 001.22 1.11h4.75A7.16 7.16 0 0075 69.87a7.22 7.22 0 00-1.07.88A7.16 7.16 0 0075 81.8a7.24 7.24 0 00-.31 11.78A6.41 6.41 0 0071.82 99a6.24 6.24 0 000 .8c-10.4-.13-19-1.78-25.51-4.91-4.67-2.24-6.71-4.52-7.23-5.17l-.05-.06a1.38 1.38 0 00-1.66-.26 1.32 1.32 0 00-.55.94 1 1 0 00.27.77c.64.93 8.46 11.09 35.5 11.14a6.7 6.7 0 005.7 3.26h10.39A6.6 6.6 0 0095.2 99a6.2 6.2 0 00-1.47-4.07 7.11 7.11 0 007-7.19 7.2 7.2 0 00-1.87-4.82 7.21 7.21 0 006-7.11 7.39 7.39 0 00-3.19-5.94zm-27.4-6A4.67 4.67 0 0179 59.16h18.68a4.8 4.8 0 014.74 4.74 4.74 4.74 0 01-4.74 4.74H79a4.74 4.74 0 01-4.73-4.74zm19.25 28.62H79a4.74 4.74 0 01-4.74-4.74A4.8 4.8 0 0179 83h14.52a4.8 4.8 0 014.74 4.74 4.74 4.74 0 01-4.74 4.75zm4.16-11.93H79a4.74 4.74 0 01-4.74-4.74A4.67 4.67 0 0179 71.08h18.68a4.8 4.8 0 014.74 4.74 4.74 4.74 0 01-4.74 4.74zM78.33 94.94h10.35A4.17 4.17 0 0192.75 99a4.12 4.12 0 01-4.06 4.06H78.33a4.06 4.06 0 110-8.13z"/></svg>